<?xml version="1.0" encoding="utf-8"?>
<!-- Generator: Adobe Illustrator 16.0.0, SVG Export Plug-In . SVG Version: 6.00 Build 0)  -->
<!DOCTYPE svg PUBLIC "-//W3C//DTD SVG 1.1//EN" "http://www.w3.org/Graphics/SVG/1.1/DTD/svg11.dtd">
<svg version="1.1" id="Layer_1" xmlns="http://www.w3.org/2000/svg" xmlns:xlink="http://www.w3.org/1999/xlink" x="0px" y="0px"
	 width="358.8px" height="115px" viewBox="0 0 358.8 115" enable-background="new 0 0 358.8 115" xml:space="preserve">
<g>
	<path fill-rule="evenodd" clip-rule="evenodd" d="M0,0c124.125,0,234.674,0,358.8,0c0,56,0,59,0,115c-119.6,0-239.2,0-358.8,0
		C0,59,0,56,0,0z M109.83,62.644c5.253,0.003,8.846-0.5,12.28-1.807c9.438-3.59,15.473-10.179,16.738-20.336
		c1.26-10.124-2.29-18.55-10.853-24.242c-9.263-6.157-19.349-6.584-29.396-2.156c-14.472,6.38-19.427,24.753-10.244,37.417
		C94.001,59.307,102.044,62.428,109.83,62.644z M146.436,18.213c0,13.644,0,27.212,0,40.801c2.004,0,3.931,0,5.981,0
		c0-5.68,0-11.254,0-16.895c5.16,0,10.194,0.023,15.227-0.022c0.86-0.007,1.358,0.268,1.852,0.959
		c3.643,5.107,7.326,10.187,11.015,15.261c0.236,0.324,0.624,0.75,0.953,0.761c2.175,0.067,4.353,0.035,6.712,0.035
		c-4.072-5.729-8.015-11.273-12.028-16.919c1.063-0.43,1.929-0.721,2.742-1.119c4.334-2.121,7.004-5.522,7.092-10.408
		c0.083-4.607-1.76-8.403-5.971-10.725c-2.709-1.494-5.705-1.761-8.717-1.773c-7.876-0.033-15.753-0.012-23.63-0.009
		C147.273,18.16,146.883,18.193,146.436,18.213z M283.83,59.119c-0.337-0.675-0.561-1.132-0.792-1.585
		c-2.646-5.193-5.297-10.384-7.938-15.58c-3.797-7.472-7.602-14.94-11.357-22.434c-0.507-1.01-1.062-1.484-2.261-1.396
		c-1.75,0.13-3.517,0.064-5.274,0.019c-0.734-0.019-1.112,0.224-1.452,0.902c-6.568,13.095-13.169,26.173-19.757,39.259
		c-0.114,0.227-0.153,0.492-0.25,0.816c1.989,0,3.868-0.045,5.744,0.021c0.819,0.028,1.19-0.294,1.529-0.994
		c1.371-2.839,2.828-5.638,4.2-8.477c0.341-0.705,0.73-0.976,1.541-0.972c7.556,0.036,15.111,0.037,22.667-0.001
		c0.824-0.004,1.185,0.307,1.532,0.99c1.484,2.917,3.011,5.813,4.574,8.688c0.183,0.337,0.683,0.695,1.048,0.707
		C279.576,59.155,281.571,59.119,283.83,59.119z M195.555,59.026c12.045,0,24.012,0,35.974,0c0-1.519,0-2.941,0-4.487
		c-9.966,0-19.86,0-29.821,0c0-4.74,0-9.355,0-14.104c7.548,0,15.04,0,22.58,0c0-1.549,0-2.964,0-4.53c-7.562,0-15.051,0-22.579,0
		c0-4.448,0-8.745,0-13.211c9.988,0,19.91,0,29.814,0c0-1.591,0-3.011,0-4.476c-12.017,0-23.955,0-35.968,0
		C195.555,31.852,195.555,45.426,195.555,59.026z M43.014,59.043c12.236,0,24.368,0,36.563,0c0-1.495,0-2.913,0-4.498
		c-10.301,0-20.544,0-30.917,0c0-12.216,0-24.266,0-36.312c-1.953,0-3.773,0-5.646,0C43.014,31.85,43.014,45.392,43.014,59.043z
		 M286.866,18.226c0,13.632,0,27.198,0,40.79c12.225,0,24.383,0,36.529,0c0-1.525,0-2.946,0-4.475c-10.302,0-20.519,0-30.875,0
		c0-6.135,0-12.158,0-18.181c0-6.022,0-12.044,0-18.134C290.555,18.226,288.74,18.226,286.866,18.226z M257.56,89.612
		c2.463,4.008,4.997,7.981,7.36,12.055c0.826,1.425,1.731,2.041,3.396,1.902c1.081-0.09,1.438-0.335,1.427-1.45
		c-0.052-5.519,0.003-11.039-0.032-16.558c-0.021-3.333,0.639-2.825-3.051-2.891c-0.816-0.014-1.001,0.347-0.993,1.092
		c0.03,3.159,0.013,6.319,0.013,9.479c0,0.94,0,1.881,0,2.711c-2.16-3.6-4.462-7.183-6.485-10.915
		c-1.013-1.87-2.206-2.637-4.317-2.409c-1.104,0.119-1.425,0.411-1.417,1.487c0.041,5.639,0.014,11.278,0.021,16.918
		c0.004,2.893-0.269,2.458,2.493,2.484c1.584,0.015,1.585,0.001,1.585-1.558C257.561,97.812,257.56,93.663,257.56,89.612z
		 M183.159,89.375c0.688,1.23,1.243,2.292,1.86,3.316c1.794,2.979,3.703,5.891,5.383,8.931c0.827,1.498,1.786,2.114,3.494,1.943
		c0.976-0.097,1.289-0.318,1.281-1.313c-0.041-5.6-0.019-11.2-0.019-16.8c0.001-2.81,0-2.771-2.771-2.795
		c-0.946-0.008-1.256,0.285-1.243,1.23c0.044,3.199,0.014,6.399,0.012,9.599c0,0.925,0,1.85,0,2.397
		c-2.052-3.465-4.364-7.143-6.431-10.954c-0.97-1.789-2.117-2.495-4.137-2.307c-1.176,0.11-1.46,0.443-1.451,1.554
		c0.047,5.64,0.011,11.279,0.025,16.92c0.007,2.849-0.307,2.386,2.412,2.419c1.578,0.02,1.582,0.002,1.582-1.561
		C183.16,97.811,183.159,93.666,183.159,89.375z M108.908,94.25c0.274-0.158,0.442-0.256,0.61-0.352
		c2.644-1.511,3.638-3.773,3.026-6.892c-0.453-2.309-2.157-3.827-5.103-4.095c-2.657-0.242-5.342-0.158-8.015-0.234
		c-0.847-0.023-0.832,0.525-0.831,1.118c0.005,6.193,0.019,12.387-0.014,18.58c-0.004,0.892,0.269,1.16,1.162,1.165
		c3.456,0.016,3.455,0.045,3.455-3.438c0-1.699,0-3.399,0-4.937c1.292-0.576,1.758,0.083,2.22,0.939
		c1.27,2.354,2.585,4.682,3.926,6.995c0.214,0.37,0.702,0.904,0.981,0.859c1.271-0.206,2.511-0.593,3.993-0.974
		C112.447,99.964,110.71,97.16,108.908,94.25z M136.318,95.879c0,1.345,0.033,2.539-0.025,3.729
		c-0.013,0.271-0.282,0.658-0.532,0.767c-2.51,1.092-5.166-0.095-5.9-2.743c-0.827-2.979-0.82-6.019,0.009-8.999
		c0.626-2.249,2.17-3.256,4.507-3.055c0.822,0.07,1.651,0.298,2.43,0.583c1.813,0.663,1.801,0.695,2.731-1
		c0.077-0.14,0.141-0.288,0.227-0.422c0.412-0.634,0.196-1.096-0.455-1.302c-1.326-0.422-2.651-0.917-4.016-1.137
		c-5.27-0.85-9.224,1.638-10.407,6.51c-0.639,2.631-0.655,5.302-0.176,7.967c0.315,1.754,0.902,3.396,2.153,4.727
		c2.744,2.916,9.748,3.485,12.95,1.013c0.322-0.249,0.588-0.784,0.597-1.192c0.053-2.598,0.004-5.197,0.042-7.795
		c0.012-0.804-0.301-1.043-1.06-1.021c-1.398,0.04-2.798,0-4.197,0.014c-2.343,0.021-2.203-0.404-2.196,2.287
		c0,0.08-0.033,0.194,0.008,0.234c0.286,0.287,0.556,0.742,0.888,0.797C134.631,95.962,135.4,95.879,136.318,95.879z
		 M299.057,103.494c-0.18-0.595-0.279-0.969-0.404-1.334c-1.828-5.364-3.656-10.729-5.494-16.09c-1.179-3.44-1.186-3.411-4.784-3.41
		c-0.823,0-1.175,0.269-1.438,1.047c-2.061,6.085-4.174,12.151-6.266,18.226c-0.15,0.438-0.26,0.891-0.46,1.587
		c1.402,0,2.624-0.042,3.841,0.016c0.754,0.035,1.065-0.287,1.243-0.97c0.392-1.504,0.84-2.992,1.287-4.563
		c1.764,0,3.48-0.037,5.192,0.035c0.289,0.013,0.695,0.442,0.813,0.765c0.463,1.274,0.812,2.59,1.25,3.874
		c0.104,0.304,0.377,0.771,0.59,0.781C295.92,103.525,297.419,103.494,299.057,103.494z M87.49,103.513
		c-0.194-0.707-0.296-1.165-0.446-1.606c-1.791-5.29-3.596-10.575-5.382-15.866c-1.156-3.426-1.145-3.408-4.797-3.377
		c-0.768,0.006-1.115,0.256-1.358,0.991c-1.303,3.938-2.665,7.856-4.006,11.782c-0.886,2.594-1.77,5.188-2.758,8.084
		c1.44,0,2.656-0.042,3.867,0.015c0.755,0.036,1.065-0.293,1.243-0.972c0.393-1.502,0.84-2.991,1.287-4.561
		c1.761,0,3.477-0.03,5.189,0.032c0.27,0.01,0.658,0.397,0.761,0.692c0.462,1.315,0.813,2.67,1.271,3.987
		c0.109,0.312,0.463,0.748,0.725,0.763C84.473,103.554,85.866,103.513,87.49,103.513z M157.983,90.96c0-1.729,0-3.271,0-4.921
		c2.091,0,4.12,0.022,6.148-0.019c0.388-0.009,0.988-0.162,1.115-0.428c0.401-0.839,0.625-1.763,0.938-2.719
		c-0.429-0.092-0.656-0.183-0.884-0.183c-3.718-0.01-7.436,0.003-11.153-0.018c-0.832-0.004-0.998,0.431-0.993,1.137
		c0.017,2.678,0.006,5.356,0.006,8.035c0,3.479-0.001,6.956,0,10.435c0,0.607-0.07,1.245,0.858,1.242
		c3.718-0.011,7.436,0.007,11.153-0.03c0.257-0.003,0.71-0.344,0.731-0.56c0.083-0.884,0.035-1.779,0.035-2.795
		c-2.826,0-5.402,0-7.947,0c0-1.995,0-3.859,0-5.9c2.157,0,4.246,0,6.45,0c0-0.692-0.052-1.214,0.011-1.721
		c0.145-1.172-0.253-1.658-1.507-1.581C161.314,91.036,159.674,90.96,157.983,90.96z M216.36,86.399
		c1.418,0,2.614,0.027,3.808-0.018c0.36-0.013,0.942-0.137,1.03-0.363c0.394-1.011,0.645-2.076,1.01-3.339c-0.758,0-1.227,0-1.696,0
		c-3.756,0-7.512-0.027-11.268,0.009c-2.9,0.028-2.525-0.611-2.574,2.738c-0.011,0.731,0.271,0.996,0.984,0.98
		c1.312-0.031,2.624-0.009,4.025-0.009c0,0.543,0,0.979,0,1.413c0,4.155,0,8.311,0,12.466c0,3.262,0.001,3.208,3.291,3.271
		c1.16,0.022,1.417-0.406,1.408-1.451c-0.038-4.755-0.018-9.509-0.019-14.264C216.36,87.404,216.36,86.976,216.36,86.399z
		 M240.997,85.583c0-0.617-0.047-1.061,0.01-1.489c0.143-1.078-0.229-1.48-1.373-1.439c-2.396,0.085-4.801,0.09-7.197-0.001
		c-1.23-0.047-1.566,0.355-1.561,1.563c0.006,1.164,0.35,1.624,1.506,1.475c0.342-0.045,0.699,0.028,1.084,0.05
		c0,4.957,0,9.845,0,14.815c-0.531,0-0.974,0.044-1.404-0.008c-1.161-0.143-1.189,0.568-1.153,1.41
		c0.035,0.796-0.171,1.625,1.142,1.581c2.196-0.073,4.398-0.02,6.598-0.02c2.698,0,2.698,0,2.204-2.9
		c-0.787-0.042-1.603-0.084-2.41-0.126c0-4.981,0-9.839,0-14.741C239.302,85.695,240.085,85.644,240.997,85.583z M69.169,32.64
		c1.234,0,2.258-0.052,3.275,0.016c0.808,0.054,1.201-0.284,1.556-0.978c1.526-2.981,3.116-5.931,4.675-8.896
		c0.771-1.466,1.525-2.942,2.395-4.623c-1.935,0-3.635,0.029-5.333-0.014c-0.666-0.017-0.981,0.207-1.218,0.836
		c-1.069,2.834-2.194,5.646-3.301,8.466C70.566,29.104,69.911,30.76,69.169,32.64z M209.626,16.983
		c0.047,0.074,0.095,0.148,0.143,0.222c4.814-1.782,9.63-3.564,14.444-5.346c-3.193-0.255-6.329-0.265-9.465-0.235
		c-0.266,0.002-0.592,0.219-0.782,0.432C212.504,13.685,211.069,15.338,209.626,16.983z"/>
	<path fill-rule="evenodd" clip-rule="evenodd" fill="#FFFFFF" d="M109.83,62.644c-7.785-0.216-15.828-3.337-21.474-11.123
		c-9.184-12.664-4.228-31.038,10.244-37.417c10.047-4.429,20.133-4.001,29.396,2.156c8.563,5.691,12.113,14.118,10.853,24.242
		c-1.265,10.157-7.3,16.746-16.738,20.336C118.676,62.144,115.083,62.646,109.83,62.644z M110.965,57.475
		c1.505-0.161,3.035-0.205,4.513-0.504c13.624-2.75,21.99-17.753,13.724-30.831c-4.878-7.718-12.308-10.397-21.209-9.225
		c-9.559,1.259-17.392,10.127-17.512,19.75C90.34,47.913,99.657,57.332,110.965,57.475z"/>
	<path fill-rule="evenodd" clip-rule="evenodd" fill="#FFFFFF" d="M146.436,18.213c0.447-0.02,0.837-0.053,1.227-0.053
		c7.877-0.003,15.754-0.024,23.63,0.009c3.012,0.012,6.007,0.279,8.717,1.773c4.211,2.322,6.054,6.118,5.971,10.725
		c-0.088,4.886-2.758,8.288-7.092,10.408c-0.813,0.398-1.679,0.689-2.742,1.119c4.014,5.646,7.956,11.19,12.028,16.919
		c-2.359,0-4.537,0.032-6.712-0.035c-0.329-0.011-0.717-0.437-0.953-0.761c-3.689-5.074-7.372-10.154-11.015-15.261
		c-0.493-0.691-0.991-0.966-1.852-0.959c-5.033,0.045-10.066,0.022-15.227,0.022c0,5.64,0,11.215,0,16.895c-2.05,0-3.977,0-5.981,0
		C146.436,45.425,146.436,31.857,146.436,18.213z M152.41,37.04c0.312,0.016,0.543,0.037,0.774,0.037
		c6.271,0.002,12.542,0.013,18.813-0.011c0.872-0.003,1.759-0.11,2.612-0.295c3.35-0.727,5.36-3.375,5.432-7.071
		c0.055-2.841-1.957-5.268-5.143-6.059c-1.074-0.267-2.205-0.416-3.311-0.423c-5.951-0.04-11.903-0.019-17.854-0.018
		c-0.424,0-0.849,0-1.323,0C152.41,27.875,152.41,32.381,152.41,37.04z"/>
	<path fill-rule="evenodd" clip-rule="evenodd" fill="#FFFFFF" d="M283.83,59.119c-2.259,0-4.254,0.036-6.245-0.033
		c-0.365-0.012-0.865-0.37-1.048-0.707c-1.563-2.875-3.09-5.771-4.574-8.688c-0.348-0.684-0.708-0.995-1.532-0.99
		c-7.556,0.038-15.111,0.037-22.667,0.001c-0.811-0.004-1.2,0.267-1.541,0.972c-1.372,2.839-2.829,5.637-4.2,8.477
		c-0.339,0.7-0.71,1.022-1.529,0.994c-1.876-0.066-3.755-0.021-5.744-0.021c0.097-0.324,0.136-0.59,0.25-0.816
		c6.588-13.085,13.188-26.164,19.757-39.259c0.34-0.679,0.718-0.921,1.452-0.902c1.758,0.045,3.524,0.111,5.274-0.019
		c1.199-0.088,1.754,0.386,2.261,1.396c3.756,7.493,7.561,14.961,11.357,22.434c2.641,5.196,5.292,10.386,7.938,15.58
		C283.27,57.987,283.493,58.444,283.83,59.119z M249.44,43.327c6.559,0,12.897,0,19.332,0c-3.218-6.431-6.37-12.731-9.614-19.215
		C255.879,30.596,252.703,36.876,249.44,43.327z"/>
	<path fill-rule="evenodd" clip-rule="evenodd" fill="#FFFFFF" d="M195.555,59.026c0-13.6,0-27.174,0-40.808
		c12.013,0,23.951,0,35.968,0c0,1.465,0,2.885,0,4.476c-9.904,0-19.826,0-29.814,0c0,4.466,0,8.763,0,13.211
		c7.528,0,15.018,0,22.579,0c0,1.566,0,2.981,0,4.53c-7.54,0-15.032,0-22.58,0c0,4.749,0,9.364,0,14.104c9.961,0,19.855,0,29.821,0
		c0,1.546,0,2.969,0,4.487C219.566,59.026,207.6,59.026,195.555,59.026z"/>
	<path fill-rule="evenodd" clip-rule="evenodd" fill="#FFFFFF" d="M43.014,59.043c0-13.651,0-27.193,0-40.81
		c1.872,0,3.692,0,5.646,0c0,12.046,0,24.096,0,36.312c10.373,0,20.616,0,30.917,0c0,1.585,0,3.003,0,4.498
		C67.381,59.043,55.25,59.043,43.014,59.043z"/>
	<path fill-rule="evenodd" clip-rule="evenodd" fill="#FFFFFF" d="M286.866,18.226c1.874,0,3.688,0,5.654,0
		c0,6.089,0,12.111,0,18.134c0,6.023,0,12.046,0,18.181c10.356,0,20.573,0,30.875,0c0,1.529,0,2.95,0,4.475
		c-12.146,0-24.305,0-36.529,0C286.866,45.424,286.866,31.858,286.866,18.226z"/>
	<path fill-rule="evenodd" clip-rule="evenodd" fill="#FFFFFF" d="M257.56,89.612c0,4.051,0.001,8.199,0,12.348
		c0,1.559-0.001,1.572-1.585,1.558c-2.762-0.026-2.489,0.408-2.493-2.484c-0.008-5.64,0.02-11.279-0.021-16.918
		c-0.008-1.076,0.313-1.368,1.417-1.487c2.111-0.228,3.305,0.539,4.317,2.409c2.023,3.732,4.325,7.315,6.485,10.915
		c0-0.83,0-1.771,0-2.711c0-3.159,0.018-6.319-0.013-9.479c-0.008-0.745,0.177-1.105,0.993-1.092
		c3.689,0.065,3.029-0.442,3.051,2.891c0.035,5.519-0.02,11.039,0.032,16.558c0.011,1.115-0.346,1.36-1.427,1.45
		c-1.665,0.139-2.57-0.478-3.396-1.902C262.557,97.594,260.022,93.62,257.56,89.612z"/>
	<path fill-rule="evenodd" clip-rule="evenodd" fill="#FFFFFF" d="M183.159,89.375c0,4.291,0.001,8.436-0.001,12.581
		c0,1.563-0.004,1.58-1.582,1.561c-2.719-0.033-2.405,0.43-2.412-2.419c-0.015-5.641,0.021-11.28-0.025-16.92
		c-0.009-1.11,0.275-1.443,1.451-1.554c2.02-0.188,3.167,0.518,4.137,2.307c2.066,3.812,4.379,7.489,6.431,10.954
		c0-0.548,0-1.473,0-2.397c0.002-3.199,0.032-6.399-0.012-9.599c-0.013-0.945,0.297-1.238,1.243-1.23
		c2.771,0.023,2.771-0.015,2.771,2.795c0,5.6-0.022,11.2,0.019,16.8c0.008,0.994-0.306,1.216-1.281,1.313
		c-1.708,0.171-2.667-0.445-3.494-1.943c-1.68-3.04-3.589-5.952-5.383-8.931C184.402,91.667,183.847,90.605,183.159,89.375z"/>
	<path fill-rule="evenodd" clip-rule="evenodd" fill="#FFFFFF" d="M108.908,94.25c1.802,2.91,3.539,5.714,5.411,8.737
		c-1.482,0.381-2.722,0.768-3.993,0.974c-0.279,0.045-0.767-0.489-0.981-0.859c-1.341-2.313-2.656-4.642-3.926-6.995
		c-0.462-0.856-0.927-1.516-2.22-0.939c0,1.537,0,3.237,0,4.937c0,3.482,0,3.453-3.455,3.438c-0.894-0.005-1.167-0.273-1.162-1.165
		c0.032-6.193,0.019-12.387,0.014-18.58c0-0.593-0.016-1.142,0.831-1.118c2.672,0.076,5.358-0.008,8.015,0.234
		c2.945,0.268,4.65,1.786,5.103,4.095c0.612,3.118-0.382,5.381-3.026,6.892C109.35,93.994,109.183,94.092,108.908,94.25z
		 M103.248,91.559c2.213,0.33,3.74-0.064,4.399-1.117c0.57-0.911,0.584-2.771-0.075-3.521c-1.206-1.372-2.82-0.835-4.325-0.98
		C103.248,87.925,103.248,89.745,103.248,91.559z"/>
	<path fill-rule="evenodd" clip-rule="evenodd" fill="#FFFFFF" d="M136.318,95.879c-0.918,0-1.687,0.083-2.422-0.038
		c-0.332-0.055-0.603-0.51-0.888-0.797C132.967,95.004,133,94.89,133,94.81c-0.007-2.691-0.147-2.266,2.196-2.287
		c1.399-0.014,2.799,0.026,4.197-0.014c0.759-0.022,1.072,0.217,1.06,1.021c-0.038,2.598,0.012,5.197-0.042,7.795
		c-0.009,0.408-0.274,0.943-0.597,1.192c-3.202,2.473-10.207,1.903-12.95-1.013c-1.251-1.331-1.838-2.973-2.153-4.727
		c-0.479-2.665-0.463-5.336,0.176-7.967c1.183-4.872,5.137-7.359,10.407-6.51c1.365,0.22,2.689,0.715,4.016,1.137
		c0.651,0.206,0.867,0.668,0.455,1.302c-0.086,0.134-0.15,0.282-0.227,0.422c-0.93,1.695-0.918,1.663-2.731,1
		c-0.779-0.285-1.608-0.513-2.43-0.583c-2.337-0.201-3.881,0.806-4.507,3.055c-0.829,2.98-0.836,6.02-0.009,8.999
		c0.735,2.648,3.391,3.835,5.9,2.743c0.25-0.108,0.519-0.496,0.532-0.767C136.351,98.418,136.318,97.224,136.318,95.879z"/>
	<path fill-rule="evenodd" clip-rule="evenodd" fill="#FFFFFF" d="M299.057,103.494c-1.638,0-3.137,0.031-4.631-0.036
		c-0.213-0.011-0.486-0.478-0.59-0.781c-0.438-1.284-0.787-2.6-1.25-3.874c-0.117-0.322-0.523-0.752-0.813-0.765
		c-1.712-0.072-3.429-0.035-5.192-0.035c-0.447,1.57-0.896,3.059-1.287,4.563c-0.178,0.683-0.489,1.005-1.243,0.97
		c-1.217-0.058-2.438-0.016-3.841-0.016c0.2-0.696,0.31-1.148,0.46-1.587c2.092-6.074,4.205-12.141,6.266-18.226
		c0.264-0.778,0.615-1.047,1.438-1.047c3.599-0.001,3.605-0.03,4.784,3.41c1.838,5.361,3.666,10.726,5.494,16.09
		C298.777,102.525,298.877,102.899,299.057,103.494z M289.378,86.737c-0.721,2.762-1.444,5.531-2.176,8.33c1.418,0,2.778,0,4.185,0
		C290.694,92.196,290.025,89.423,289.378,86.737z"/>
	<path fill-rule="evenodd" clip-rule="evenodd" fill="#FFFFFF" d="M87.49,103.513c-1.624,0-3.018,0.041-4.405-0.035
		c-0.262-0.015-0.616-0.451-0.725-0.763c-0.458-1.317-0.809-2.672-1.271-3.987c-0.104-0.295-0.492-0.683-0.761-0.692
		c-1.712-0.063-3.428-0.032-5.189-0.032c-0.447,1.569-0.894,3.059-1.287,4.561c-0.178,0.679-0.487,1.008-1.243,0.972
		c-1.211-0.057-2.427-0.015-3.867-0.015c0.988-2.896,1.873-5.49,2.758-8.084c1.341-3.926,2.703-7.844,4.006-11.782
		c0.244-0.735,0.59-0.985,1.358-0.991c3.653-0.031,3.641-0.049,4.797,3.377c1.787,5.291,3.592,10.576,5.382,15.866
		C87.194,102.348,87.296,102.806,87.49,103.513z M79.934,95.105c-0.691-2.881-1.366-5.695-2.008-8.373
		c-0.704,2.716-1.43,5.521-2.169,8.373C77.178,95.105,78.522,95.105,79.934,95.105z"/>
	<path fill-rule="evenodd" clip-rule="evenodd" fill="#FFFFFF" d="M157.983,90.96c1.691,0,3.331,0.076,4.96-0.024
		c1.254-0.077,1.652,0.409,1.507,1.581c-0.063,0.507-0.011,1.028-0.011,1.721c-2.204,0-4.292,0-6.45,0c0,2.041,0,3.905,0,5.9
		c2.545,0,5.121,0,7.947,0c0,1.016,0.049,1.911-0.035,2.795c-0.021,0.216-0.474,0.557-0.731,0.56
		c-3.717,0.037-7.436,0.02-11.153,0.03c-0.928,0.003-0.858-0.635-0.858-1.242c-0.001-3.479,0-6.956,0-10.435
		c0-2.679,0.01-5.357-0.006-8.035c-0.004-0.706,0.162-1.141,0.993-1.137c3.717,0.021,7.436,0.008,11.153,0.018
		c0.228,0,0.455,0.091,0.884,0.183c-0.313,0.956-0.536,1.88-0.938,2.719c-0.127,0.266-0.727,0.419-1.115,0.428
		c-2.028,0.041-4.057,0.019-6.148,0.019C157.983,87.688,157.983,89.231,157.983,90.96z"/>
	<path fill-rule="evenodd" clip-rule="evenodd" fill="#FFFFFF" d="M216.36,86.399c0,0.576,0,1.005,0,1.435
		c0.001,4.755-0.02,9.509,0.019,14.264c0.009,1.045-0.248,1.474-1.408,1.451c-3.29-0.063-3.291-0.01-3.291-3.271
		c0-4.155,0-8.311,0-12.466c0-0.435,0-0.87,0-1.413c-1.401,0-2.714-0.022-4.025,0.009c-0.714,0.016-0.995-0.249-0.984-0.98
		c0.049-3.35-0.326-2.71,2.574-2.738c3.756-0.036,7.512-0.009,11.268-0.009c0.47,0,0.938,0,1.696,0
		c-0.365,1.263-0.616,2.328-1.01,3.339c-0.088,0.227-0.67,0.351-1.03,0.363C218.975,86.427,217.778,86.399,216.36,86.399z"/>
	<path fill-rule="evenodd" clip-rule="evenodd" fill="#FFFFFF" d="M240.997,85.583c-0.912,0.061-1.695,0.112-2.556,0.17
		c0,4.902,0,9.76,0,14.741c0.808,0.042,1.623,0.084,2.41,0.126c0.494,2.9,0.494,2.9-2.204,2.9c-2.199,0-4.401-0.054-6.598,0.02
		c-1.313,0.044-1.106-0.785-1.142-1.581c-0.036-0.842-0.008-1.553,1.153-1.41c0.431,0.052,0.873,0.008,1.404,0.008
		c0-4.971,0-9.858,0-14.815c-0.385-0.021-0.742-0.095-1.084-0.05c-1.156,0.149-1.5-0.311-1.506-1.475
		c-0.006-1.208,0.33-1.61,1.561-1.563c2.396,0.091,4.801,0.086,7.197,0.001c1.145-0.041,1.516,0.361,1.373,1.439
		C240.95,84.522,240.997,84.966,240.997,85.583z"/>
	<path fill-rule="evenodd" clip-rule="evenodd" fill="#FFFFFF" d="M69.169,32.64c0.742-1.88,1.397-3.536,2.048-5.193
		c1.107-2.819,2.232-5.632,3.301-8.466c0.237-0.63,0.553-0.854,1.218-0.836c1.698,0.043,3.399,0.014,5.333,0.014
		c-0.87,1.681-1.624,3.157-2.395,4.623c-1.559,2.965-3.149,5.915-4.675,8.896c-0.355,0.694-0.749,1.032-1.556,0.978
		C71.427,32.588,70.403,32.64,69.169,32.64z"/>
	<path fill-rule="evenodd" clip-rule="evenodd" fill="#FFFFFF" d="M209.626,16.983c1.443-1.646,2.878-3.299,4.34-4.928
		c0.19-0.213,0.517-0.429,0.782-0.432c3.136-0.03,6.271-0.02,9.465,0.235c-4.814,1.782-9.63,3.564-14.444,5.346
		C209.721,17.131,209.673,17.057,209.626,16.983z"/>
	<path fill-rule="evenodd" clip-rule="evenodd" d="M110.965,57.475C99.657,57.332,90.34,47.913,90.48,36.664
		c0.12-9.622,7.953-18.49,17.512-19.75c8.901-1.172,16.331,1.507,21.209,9.225c8.266,13.078-0.1,28.082-13.724,30.831
		C114,57.27,112.47,57.313,110.965,57.475z"/>
	<path fill-rule="evenodd" clip-rule="evenodd" d="M152.41,37.04c0-4.659,0-9.165,0-13.84c0.474,0,0.898,0,1.323,0
		c5.952,0,11.903-0.022,17.854,0.018c1.106,0.007,2.237,0.156,3.311,0.423c3.186,0.792,5.198,3.218,5.143,6.059
		c-0.072,3.696-2.083,6.344-5.432,7.071c-0.853,0.185-1.74,0.292-2.612,0.295c-6.271,0.024-12.542,0.013-18.813,0.011
		C152.953,37.077,152.722,37.056,152.41,37.04z"/>
	<path fill-rule="evenodd" clip-rule="evenodd" d="M249.44,43.327c3.263-6.451,6.438-12.731,9.718-19.215
		c3.244,6.484,6.396,12.784,9.614,19.215C262.338,43.327,255.999,43.327,249.44,43.327z"/>
	<path fill-rule="evenodd" clip-rule="evenodd" d="M103.248,91.559c0-1.813,0-3.634,0-5.619c1.505,0.146,3.119-0.392,4.325,0.98
		c0.659,0.751,0.645,2.61,0.075,3.521C106.988,91.494,105.461,91.889,103.248,91.559z"/>
	<path fill-rule="evenodd" clip-rule="evenodd" d="M289.378,86.737c0.647,2.686,1.316,5.459,2.009,8.33c-1.406,0-2.767,0-4.185,0
		C287.934,92.269,288.657,89.499,289.378,86.737z"/>
	<path fill-rule="evenodd" clip-rule="evenodd" d="M79.934,95.105c-1.411,0-2.756,0-4.178,0c0.739-2.853,1.466-5.657,2.169-8.373
		C78.567,89.41,79.242,92.225,79.934,95.105z"/>
</g>
</svg>
